/* XPM */
static char * point_l_xpm[] = {
"57 70 6 1",
" 	c None",
".	c #1EC81E",
"+	c #1EC61E",
"@	c #1EC71E",
"#	c #1AB21A",
"$	c #1DC11D",
"                            .                            ",
"                            .                            ",
"                            .                            ",
"                            .                            ",
"                            .                            ",
"                            .                            ",
"                            .                            ",
"                                                         ",
"        ..                                     ..        ",
"        ...                                   ...        ",
"         ...                                 ...         ",
"          ...                               ...          ",
"           ...            .....            ...           ",
"            .          ...........          .            ",
"                     ...............                     ",
"                   ....           ....                   ",
"                  ...               ...                  ",
"                 ...                 ...                 ",
"                ...                   ...                ",
"               ...                     ..+               ",
"               ..                       ..               ",
"              ..                         ..              ",
"              ..                         ..              ",
"             ..                           ..             ",
"             ..                           ..             ",
"             ..                           ..             ",
"             ..                           .@             ",
".......      ..                           ..      .......",
".......      ..                           ..      .......",
"             ..                           ..             ",
"             ..                           ..             ",
"             ..                           ..             ",
"             ..                           ..             ",
"             ...                         ...             ",
"              ..                         ..              ",
"              ..                         ..              ",
"               ..                       ..               ",
"               ...                     ...               ",
"                ...                   ...                ",
"                 ..                   ..                 ",
"                  ..                 ..                  ",
"                  ...               ...                  ",
"                   ...             ...                   ",
"            ..      ..             ..      ..            ",
"           ...      ..             ..      #..           ",
"          ...        .$           ..        ...          ",
"         ...         ..           ..         ...         ",
"        ...          ..           ..          ...        ",
"        ..           ..           ..           ..        ",
"                      .           .                      ",
"                      .           .                      ",
"                      .           .                      ",
"                      .                                  ",
"                      .                                  ",
"                      .                                  ",
"                      .          @.                      ",
"                      .       .....                      ",
"                            ......                       ",
"                          .....                          ",
"                        .....                            ",
"                      .....      ..                      ",
"                      ..       ....                      ",
"                            ......                       ",
"                          ......                         ",
"                        .....                            ",
"                      .....                              ",
"                      ..       ..                        ",
"                             ....                        ",
"                           .....                         ",
"                           ..                            "};
