/* XPM */
static char * button_render_xpm[] = {
"134 54 123 2",
"  	c None",
". 	c #36CE36",
"+ 	c #24C924",
"@ 	c #1EC81E",
"# 	c #3CCF3C",
"$ 	c #40D040",
"% 	c #41D041",
"& 	c #35CD35",
"* 	c #3FD03F",
"= 	c #44D144",
"- 	c #39CE39",
"; 	c #42D042",
"> 	c #43D143",
", 	c #3BCF3B",
"' 	c #2ACB2A",
") 	c #DCF6DC",
"! 	c #FFFFFF",
"~ 	c #FAFDFA",
"{ 	c #EEFAEE",
"] 	c #CFF3CF",
"^ 	c #9AE69A",
"/ 	c #25C925",
"( 	c #F1FBF1",
"_ 	c #30CC30",
": 	c #EAFAEA",
"< 	c #6FDB6F",
"[ 	c #FDFEFD",
"} 	c #F0FBF0",
"| 	c #DAF6DA",
"1 	c #ABEAAB",
"2 	c #68DA68",
"3 	c #20C820",
"4 	c #FBFEFB",
"5 	c #86E186",
"6 	c #A7E9A7",
"7 	c #E0F7E0",
"8 	c #50D450",
"9 	c #FCFEFC",
"0 	c #61D861",
"a 	c #4BD34B",
"b 	c #D2F4D2",
"c 	c #26CA26",
"d 	c #47D247",
"e 	c #AFEBAF",
"f 	c #C2F0C2",
"g 	c #CCF2CC",
"h 	c #27CA27",
"i 	c #52D452",
"j 	c #B5EDB5",
"k 	c #F4FCF4",
"l 	c #3ACE3A",
"m 	c #1FC81F",
"n 	c #E1F7E1",
"o 	c #EFFBEF",
"p 	c #BEEFBE",
"q 	c #70DC70",
"r 	c #98E598",
"s 	c #A9EAA9",
"t 	c #C0EFC0",
"u 	c #F7FDF7",
"v 	c #E4F8E4",
"w 	c #E8F9E8",
"x 	c #28CA28",
"y 	c #23C923",
"z 	c #EBFAEB",
"A 	c #F3FCF3",
"B 	c #21C821",
"C 	c #E7F9E7",
"D 	c #D9F5D9",
"E 	c #66D966",
"F 	c #6ADA6A",
"G 	c #96E596",
"H 	c #AAEAAA",
"I 	c #29CA29",
"J 	c #4CD34C",
"K 	c #BBEEBB",
"L 	c #87E187",
"M 	c #A4E8A4",
"N 	c #C9F1C9",
"O 	c #F9FDF9",
"P 	c #3ECF3E",
"Q 	c #62D862",
"R 	c #CDF2CD",
"S 	c #77DD77",
"T 	c #49D249",
"U 	c #BDEFBD",
"V 	c #7DDF7D",
"W 	c #6DDB6D",
"X 	c #FEFEFE",
"Y 	c #2CCB2C",
"Z 	c #A1E8A1",
"` 	c #79DE79",
" .	c #A6E9A6",
"..	c #60D860",
"+.	c #E3F8E3",
"@.	c #89E289",
"#.	c #5ED75E",
"$.	c #F5FCF5",
"%.	c #F8FDF8",
"&.	c #45D145",
"*.	c #31CC31",
"=.	c #DEF7DE",
"-.	c #B2ECB2",
";.	c #83E083",
">.	c #2BCB2B",
",.	c #54D554",
"'.	c #22C922",
").	c #DDF6DD",
"!.	c #97E597",
"~.	c #9CE69C",
"{.	c #33CD33",
"].	c #67D967",
"^.	c #2FCC2F",
"/.	c #EDFAED",
"(.	c #34CD34",
"_.	c #4ED34E",
":.	c #C3F0C3",
"<.	c #CEF3CE",
"[.	c #95E595",
"}.	c #9BE69B",
"|.	c #9DE79D",
"1.	c #32CC32",
"2.	c #48D248",
"                              . + @ @ @ @ @ @ @ @ @ @ @ @ @ @ @ @ @ @ @ @ @ @ @ @ @ @ @ @ @ @ @ @ @ @ @ @ @ @ @ @ @ @ @ @ @ @ @ @ @ @ @ @ @ @ @ @ @ @ @ @ @ @ @ @ @ @ @ @ @ @ @ @ @ @ @ @ @ @ @ @ @ @ @ @ @ @ @ @ @ @ @ @ @ @ @ @ @ @ @ @ + #                               ",
"                      $ @ @ @ @ @ @ @ @ @ @ @ @ @ @ @ @ @ @ @ @ @ @ @ @ @ @ @ @ @ @ @ @ @ @ @ @ @ @ @ @ @ @ @ @ @ @ @ @ @ @ @ @ @ @ @ @ @ @ @ @ @ @ @ @ @ @ @ @ @ @ @ @ @ @ @ @ @ @ @ @ @ @ @ @ @ @ @ @ @ @ @ @ @ @ @ @ @ @ @ @ @ @ @ @ @ @ @ @ @ @ %                       ",
"                  & @ @ @ @ @ @ @ @ @ @ @ @ @ @ @ @ @ @ @ @ @ @ @ @ @ @ @ @ @ @ @ @ @ @ @ @ @ @ @ @ @ @ @ @ @ @ @ @ @ @ @ @ @ @ @ @ @ @ @ @ @ @ @ @ @ @ @ @ @ @ @ @ @ @ @ @ @ @ @ @ @ @ @ @ @ @ @ @ @ @ @ @ @ @ @ @ @ @ @ @ @ @ @ @ @ @ @ @ @ @ @ @ @ @ *                   ",
"                @ @ @ @ @ @ @ @ @ @ @ @ @ @ @ @ @ @ @ @ @ @ @ @ @ @ @ @ @ @ @ @ @ @ @ @ @ @ @ @ @ @ @ @ @ @ @ @ @ @ @ @ @ @ @ @ @ @ @ @ @ @ @ @ @ @ @ @ @ @ @ @ @ @ @ @ @ @ @ @ @ @ @ @ @ @ @ @ @ @ @ @ @ @ @ @ @ @ @ @ @ @ @ @ @ @ @ @ @ @ @ @ @ @ @ @ @ @                 ",
"            = @ @ @ @ @ @ @ @ @ @ @ @ @ @ @ @ @ @ @ @ @ @ @ @ @ @ @ @ @ @ @ @ @ @ @ @ @ @ @ @ @ @ @ @ @ @ @ @ @ @ @ @ @ @ @ @ @ @ @ @ @ @ @ @ @ @ @ @ @ @ @ @ @ @ @ @ @ @ @ @ @ @ @ @ @ @ @ @ @ @ @ @ @ @ @ @ @ @ @ @ @ @ @ @ @ @ @ @ @ @ @ @ @ @ @ @ @ @ @ @               ",
"          - @ @ @ @ @ @ @ @ @ @ @ @ @ @ @ @ @ @ @ @ @ @ @ @ @ @ @ @ @ @ @ @ @ @ @ @ @ @ @ @ @ @ @ @ @ @ @ @ @ @ @ @ @ @ @ @ @ @ @ @ @ @ @ @ @ @ @ @ @ @ @ @ @ @ @ @ @ @ @ @ @ @ @ @ @ @ @ @ @ @ @ @ @ @ @ @ @ @ @ @ @ @ @ @ @ @ @ @ @ @ @ @ @ @ @ @ @ @ @ @ @ @ ;           ",
"        = @ @ @ @ @ @ @ @ @ @ @ @ @ @ @ @ @ @ @ @ @ @ @ @ @ @ @ @ @ @ @ @ @ @ @ @ @ @ @ @ @ @ @ @ @ @ @ @ @ @ @ @ @ @ @ @ @ @ @ @ @ @ @ @ @ @ @ @ @ @ @ @ @ @ @ @ @ @ @ @ @ @ @ @ @ @ @ @ @ @ @ @ @ @ @ @ @ @ @ @ @ @ @ @ @ @ @ @ @ @ @ @ @ @ @ @ @ @ @ @ @ @ @ @           ",
"        @ @ @ @ @ @ @ @ @ @ @ @ @ @ @ @ @ @ @ @ @ @ @ @ @ @ @ @ @ @ @ @ @ @ @ @ @ @ @ @ @ @ @ @ @ @ @ @ @ @ @ @ @ @ @ @ @ @ @ @ @ @ @ @ @ @ @ @ @ @ @ @ @ @ @ @ @ @ @ @ @ @ @ @ @ @ @ @ @ @ @ @ @ @ @ @ @ @ @ @ @ @ @ @ @ @ @ @ @ @ @ @ @ @ @ @ @ @ @ @ @ @ @ @ @ @         ",
"      @ @ @ @ @ @ @ @ @ @ @ @ @ @ @ @ @ @ @ @ @ @ @ @ @ @ @ @ @ @ @ @ @ @ @ @ @ @ @ @ @ @ @ @ @ @ @ @ @ @ @ @ @ @ @ @ @ @ @ @ @ @ @ @ @ @ @ @ @ @ @ @ @ @ @ @ @ @ @ @ @ @ @ @ @ @ @ @ @ @ @ @ @ @ @ @ @ @ @ @ @ @ @ @ @ @ @ @ @ @ @ @ @ @ @ @ @ @ @ @ @ @ @ @ @ @ @ @       ",
"    & @ @ @ @ @ @ @ @ @ @ @ @ @ @ @ @ @ @ @ @ @ @ @ @ @ @ @ @ @ @ @ @ @ @ @ @ @ @ @ @ @ @ @ @ @ @ @ @ @ @ @ @ @ @ @ @ @ @ @ @ @ @ @ @ @ @ @ @ @ @ @ @ @ @ @ @ @ @ @ @ @ @ @ @ @ @ @ @ @ @ @ @ @ @ @ @ @ @ @ @ @ @ @ @ @ @ @ @ @ @ @ @ @ @ @ @ @ @ @ @ @ @ @ @ @ @ @ @ =     ",
"    @ @ @ @ @ @ @ @ @ @ @ @ @ @ @ @ @ @ @ @ @ @ @ @ @ @ @ @ @ @ @ @ @ @ @ @ @ @ @ @ @ @ @ @ @ @ @ @ @ @ @ @ @ @ @ @ @ @ @ @ @ @ @ @ @ @ @ @ @ @ @ @ @ @ @ @ @ @ @ @ @ @ @ @ @ @ @ @ @ @ @ @ @ @ @ @ @ @ @ @ @ @ @ @ @ @ @ @ @ @ @ @ @ @ @ @ @ @ @ @ @ @ @ @ @ @ @ @ @ @     ",
"  > @ @ @ @ @ @ @ @ @ @ @ @ @ @ @ @ @ @ @ @ @ @ @ @ @ @ @ @ @ @ @ @ @ @ @ @ @ @ @ @ @ @ @ @ @ @ @ @ @ @ @ @ @ @ @ @ @ @ @ @ @ @ @ @ @ @ @ @ @ @ @ @ @ @ @ @ @ @ @ @ @ @ @ @ @ @ @ @ @ @ @ @ @ @ @ @ @ @ @ @ @ @ @ @ @ @ @ @ @ @ @ @ @ @ @ @ @ @ @ @ @ @ @ @ @ @ @ @ @ @     ",
"  @ @ @ @ @ @ @ @ @ @ @ @ @ @ @ @ @ @ @ @ @ @ @ @ @ @ @ @ @ @ @ @ @ @ @ @ @ @ @ @ @ @ @ @ @ @ @ @ @ @ @ @ @ @ @ @ @ @ @ @ @ @ @ @ @ @ @ @ @ @ @ @ @ @ @ @ @ @ @ @ @ @ @ @ @ @ @ @ @ @ @ @ @ @ @ @ @ @ @ @ @ @ @ @ @ @ @ @ @ @ @ @ @ @ @ @ @ @ @ @ @ @ @ @ @ @ @ @ @ @ @ @   ",
"  @ @ @ @ @ @ @ @ @ @ @ @ @ @ @ @ @ @ @ @ @ @ @ @ @ @ @ @ @ @ @ @ @ @ @ @ @ @ @ @ @ @ @ @ @ @ @ @ @ @ @ @ @ @ @ @ @ @ @ @ @ @ @ @ @ @ @ @ @ @ @ @ @ @ @ @ @ @ @ @ @ @ @ @ @ @ @ @ @ @ @ @ @ @ @ @ @ @ @ @ @ @ @ @ @ @ @ @ @ @ @ @ @ @ @ @ @ @ @ @ @ @ @ @ @ @ @ @ @ @ @ @   ",
"  @ @ @ @ @ @ @ @ @ @ @ @ @ @ @ @ @ @ @ @ @ @ @ @ @ @ @ @ @ @ @ @ @ @ @ @ @ @ @ @ @ @ @ @ @ @ @ @ @ @ @ @ @ @ @ @ @ @ @ @ @ @ @ @ @ @ @ @ @ @ @ @ @ @ @ @ @ @ @ @ @ @ @ @ @ @ @ @ @ @ @ @ @ @ @ @ @ @ @ @ @ @ @ @ @ @ @ @ @ @ @ @ @ @ @ @ @ @ @ @ @ @ @ @ @ @ @ @ @ @ @ @   ",
", @ @ @ @ @ @ @ @ @ @ @ @ @ @ @ @ @ @ @ @ @ @ @ @ @ @ @ @ @ @ @ @ @ @ @ @ @ @ @ @ @ @ @ @ @ @ @ @ @ @ @ @ @ @ @ @ @ @ @ @ @ @ @ @ @ @ @ @ @ @ @ @ @ @ @ @ @ @ @ @ @ @ @ @ @ @ @ @ @ @ @ @ @ @ @ @ @ @ @ @ @ @ @ @ @ @ @ @ @ @ @ @ @ @ @ @ @ @ @ @ @ @ @ @ @ @ @ @ @ @ @ @   ",
"+ @ @ @ @ @ @ @ @ @ @ @ @ @ @ @ @ @ @ @ @ @ @ @ @ @ @ @ @ @ @ @ @ @ @ @ @ @ @ @ @ @ @ @ @ @ @ @ @ @ @ @ @ @ @ @ @ @ @ @ @ @ @ @ @ @ @ @ @ @ @ @ @ @ @ @ @ @ @ @ @ @ @ @ @ @ @ @ @ @ @ @ @ @ @ @ @ @ @ @ @ @ @ @ @ @ @ @ @ @ @ @ @ @ @ @ @ @ @ @ @ @ @ @ @ @ @ @ @ @ @ @ @ $ ",
"@ @ @ @ @ @ @ @ @ @ @ @ @ @ @ @ @ @ @ @ @ @ @ @ @ @ @ @ @ @ @ @ @ @ @ @ @ @ @ @ @ @ @ @ @ @ @ @ @ @ @ @ @ @ @ @ @ @ @ @ @ @ @ @ @ @ @ @ @ @ @ @ @ @ @ @ @ @ @ @ @ @ @ @ @ @ @ @ @ @ @ @ @ @ @ @ @ @ @ @ @ @ @ @ @ @ @ @ @ @ @ @ @ @ @ @ @ @ @ @ @ @ @ @ @ @ @ @ @ @ @ @ @ ' ",
"@ @ @ @ @ @ @ @ @ @ @ @ @ @ @ @ @ @ @ @ ) ! ! ! ! ~ { ] ^ > @ @ @ @ @ @ ) ! ! ! ! ! ! ! ! ! / @ @ ) ! ! ! ( _ @ @ @ @ @ @ : ! ! < @ @ @ @ ) ! ! ! ! [ } | 1 2 3 @ @ @ @ @ @ @ ) ! ! ! ! ! ! ! ! ! / @ @ ) ! ! ! ! ~ { ] ^ > @ @ @ @ @ @ @ @ @ @ @ @ @ @ @ @ @ @ @ @ @ @ @ @ ",
"@ @ @ @ @ @ @ @ @ @ @ @ @ @ @ @ @ @ @ @ ) ! ! ! ! ! ! ! ! 4 5 @ @ @ @ @ ) ! ! ! ! ! ! ! ! ! / @ @ ) ! ! ! ! 6 @ @ @ @ @ @ : ! ! < @ @ @ @ ) ! ! ! ! ! ! ! ! ! 7 8 @ @ @ @ @ @ ) ! ! ! ! ! ! ! ! ! / @ @ ) ! ! ! ! ! ! ! ! 4 5 @ @ @ @ @ @ @ @ @ @ @ @ @ @ @ @ @ @ @ @ @ @ @ ",
"@ @ @ @ @ @ @ @ @ @ @ @ @ @ @ @ @ @ @ @ ) ! ! ! 9 ! ! ! ! ! ! 0 @ @ @ @ ) ! ! ! 9 9 9 9 9 9 + @ @ ) ! ! ! ! [ a @ @ @ @ @ : ! ! < @ @ @ @ ) ! ! ! 9 9 ! ! ! ! ! 4 0 @ @ @ @ @ ) ! ! ! 9 9 9 9 9 9 + @ @ ) ! ! ! 9 ! ! ! ! ! ! 0 @ @ @ @ @ @ @ @ @ @ @ @ @ @ @ @ @ @ @ @ @ @ ",
"@ @ @ @ @ @ @ @ @ @ @ @ @ @ @ @ @ @ @ @ ) ! ! b @ c d e ! ! ! f @ @ @ @ ) ! ! b @ @ @ @ @ @ @ @ @ ) ! ! ! ! ! g @ @ @ @ @ : ! ! < @ @ @ @ ) ! ! b @ @ h i j ! ! ! k l @ @ @ @ ) ! ! b @ @ @ @ @ @ @ @ @ ) ! ! b @ c d e ! ! ! f @ @ @ @ @ @ @ @ @ @ @ @ @ @ @ @ @ @ @ @ @ @ ",
"@ @ @ @ @ @ @ @ @ @ @ @ @ @ @ @ @ @ @ @ ) ! ! b @ @ @ m n ! ! o @ @ @ @ ) ! ! b @ @ @ @ @ @ @ @ @ ) ! ! p ! ! ! q @ @ @ @ : ! ! < @ @ @ @ ) ! ! b @ @ @ @ @ r ! ! ! s @ @ @ @ ) ! ! b @ @ @ @ @ @ @ @ @ ) ! ! b @ @ @ m n ! ! o @ @ @ @ @ @ @ @ @ @ @ @ @ @ @ @ @ @ @ @ @ @ ",
"@ @ @ @ @ @ @ @ @ @ @ @ @ @ @ @ @ @ @ @ ) ! ! b @ @ @ @ t ! ! u @ @ @ @ ) ! ! b @ @ @ @ @ @ @ @ @ ) ! ! 0 v ! ! w x @ @ @ : ! ! < @ @ @ @ ) ! ! b @ @ @ @ @ y z ! ! A B @ @ @ ) ! ! b @ @ @ @ @ @ @ @ @ ) ! ! b @ @ @ @ t ! ! u @ @ @ @ @ @ @ @ @ @ @ @ @ @ @ @ @ @ @ @ @ @ ",
"@ @ @ @ @ @ @ @ @ @ @ @ @ @ @ @ @ @ @ @ ) ! ! b @ @ @ + C ! ! D @ @ @ @ ) ! ! b @ @ @ @ @ @ @ @ @ ) ! ! E F ! ! ! G @ @ @ : ! ! < @ @ @ @ ) ! ! b @ @ @ @ @ @ H ! ! ! a @ @ @ ) ! ! b @ @ @ @ @ @ @ @ @ ) ! ! b @ @ @ + C ! ! D @ @ @ @ @ @ @ @ @ @ @ @ @ @ @ @ @ @ @ @ @ @ ",
"@ @ @ @ @ @ @ @ @ @ @ @ @ @ @ @ @ @ @ @ ) ! ! b @ I J K ! ! ! L @ @ @ @ ) ! ! ! ! ! ! ! ! M @ @ @ ) ! ! q @ N ! ! O P @ @ : ! ! < @ @ @ @ ) ! ! b @ @ @ @ @ @ L ! ! ! Q @ @ @ ) ! ! ! ! ! ! ! ! M @ @ @ ) ! ! b @ I J K ! ! ! L @ @ @ @ @ @ @ @ @ @ @ @ @ @ @ @ @ @ @ @ @ @ ",
"@ @ @ @ @ @ @ @ @ @ @ @ @ @ @ @ @ @ @ @ ) ! ! ! ! ! ! ! ! ! R c @ @ @ @ ) ! ! ! ! ! ! ! ! M @ @ @ ) ! ! S @ T [ ! ! U @ @ w ! ! < @ @ @ @ ) ! ! b @ @ @ @ @ @ V ! ! ! W @ @ @ ) ! ! ! ! ! ! ! ! M @ @ @ ) ! ! ! ! ! ! ! ! ! R c @ @ @ @ @ @ @ @ @ @ @ @ @ @ @ @ @ @ @ @ @ @ ",
"@ @ @ @ @ @ @ @ @ @ @ @ @ @ @ @ @ @ @ @ ) ! ! ! ! ! ! ! X s Y @ @ @ @ @ ) ! ! ! 9 9 9 9 9 Z @ @ @ ) ! ! ` @ @  .! ! ! ..@ +.! ! < @ @ @ @ ) ! ! b @ @ @ @ @ @ @.! ! ! #.@ @ @ ) ! ! ! 9 9 9 9 9 Z @ @ @ ) ! ! ! ! ! ! ! X s Y @ @ @ @ @ @ @ @ @ @ @ @ @ @ @ @ @ @ @ @ @ @ @ ",
"@ @ @ @ @ @ @ @ @ @ @ @ @ @ @ @ @ @ @ @ ) ! ! [ $.u ! ! %.&.@ @ @ @ @ @ ) ! ! b @ @ @ @ @ @ @ @ @ ) ! ! ` @ @ *.( ! ! =.y ) ! ! < @ @ @ @ ) ! ! b @ @ @ @ @ @ -.! ! ! > @ @ @ ) ! ! b @ @ @ @ @ @ @ @ @ ) ! ! [ $.u ! ! %.&.@ @ @ @ @ @ @ @ @ @ @ @ @ @ @ @ @ @ @ @ @ @ @ @ ",
"@ @ @ @ @ @ @ @ @ @ @ @ @ @ @ @ @ @ @ @ ) ! ! b @ h n ! ! D / @ @ @ @ @ ) ! ! b @ @ @ @ @ @ @ @ @ ) ! ! ` @ @ @ ;.! ! ! 5 b ! ! < @ @ @ @ ) ! ! b @ @ @ @ @ >.A ! ! : @ @ @ @ ) ! ! b @ @ @ @ @ @ @ @ @ ) ! ! b @ h n ! ! D / @ @ @ @ @ @ @ @ @ @ @ @ @ @ @ @ @ @ @ @ @ @ @ ",
"@ @ @ @ @ @ @ @ @ @ @ @ @ @ @ @ @ @ @ @ ) ! ! b @ @ ,.X ! ! Z @ @ @ @ @ ) ! ! b @ @ @ @ @ @ @ @ @ ) ! ! ` @ @ @ '.).! ! A ).! ! < @ @ @ @ ) ! ! b @ @ @ @ 3 -.! ! ! !.@ @ @ @ ) ! ! b @ @ @ @ @ @ @ @ @ ) ! ! b @ @ ,.X ! ! Z @ @ @ @ @ @ @ @ @ @ @ @ @ @ @ @ @ @ @ @ @ @ @ ",
"@ @ @ @ @ @ @ @ @ @ @ @ @ @ @ @ @ @ @ @ ) ! ! b @ @ @ ~.! ! ! 0 @ @ @ @ ) ! ! b @ @ @ @ @ @ @ @ @ ) ! ! ` @ @ @ @ ..! ! ! ! ! ! < @ @ @ @ ) ! ! b @ 3 {.].R ! ! ! z ^.@ @ @ @ ) ! ! b @ @ @ @ @ @ @ @ @ ) ! ! b @ @ @ ~.! ! ! 0 @ @ @ @ @ @ @ @ @ @ @ @ @ @ @ @ @ @ @ @ @ @ ",
"@ @ @ @ @ @ @ @ @ @ @ @ @ @ @ @ @ @ @ @ ) ! ! b @ @ @ / ) ! ! /.(.@ @ @ ) ! ! ! ! ! ! ! ! ! / @ @ ) ! ! ` @ @ @ @ @ p ! ! ! ! ! < @ @ @ @ ) ! ! ! ! ! ! ! ! ! ! $.8 @ @ @ @ @ ) ! ! ! ! ! ! ! ! ! / @ @ ) ! ! b @ @ @ / ) ! ! /.(.@ @ @ @ @ @ @ @ @ @ @ @ @ @ @ @ @ @ @ @ @ ",
"@ @ @ @ @ @ @ @ @ @ @ @ @ @ @ @ @ @ @ @ ) ! ! b @ @ @ @ _.9 ! ! :.m @ @ ) ! ! ! ! ! ! ! ! ! / @ @ ) ! ! ` @ @ @ @ @ $ ~ ! ! ! ! < @ @ @ @ ) ! ! ! ! ! ! ! ! ! <.$ @ @ @ @ @ @ ) ! ! ! ! ! ! ! ! ! / @ @ ) ! ! b @ @ @ @ _.9 ! ! :.m @ @ @ @ @ @ @ @ @ @ @ @ @ @ @ @ @ @ @ @ ",
"@ @ @ @ @ @ @ @ @ @ @ @ @ @ @ @ @ @ @ @ ) ! ! b @ @ @ @ @ [.! ! ! @.@ @ ) ! ! ! ! ! ! ! ! ! / @ @ ) ! ! ` @ @ @ @ @ @ }.! ! ! ! < @ @ @ @ ) ! ! ! ! %.: <.|.i @ @ @ @ @ @ @ @ ) ! ! ! ! ! ! ! ! ! / @ @ ) ! ! b @ @ @ @ @ [.! ! ! @.@ @ @ @ @ @ @ @ @ @ @ @ @ @ @ @ @ @ @ @ ",
"@ @ @ @ @ @ @ @ @ @ @ @ @ @ @ @ @ @ @ @ @ @ @ @ @ @ @ @ @ @ @ @ @ @ @ @ @ @ @ @ @ @ @ @ @ @ @ @ @ @ @ @ @ @ @ @ @ @ @ @ @ @ @ @ @ @ @ @ @ @ @ @ @ @ @ @ @ @ @ @ @ @ @ @ @ @ @ @ @ @ @ @ @ @ @ @ @ @ @ @ @ @ @ @ @ @ @ @ @ @ @ @ @ @ @ @ @ @ @ @ @ @ @ @ @ @ @ @ @ @ @ @ @ @ ",
"@ @ @ @ @ @ @ @ @ @ @ @ @ @ @ @ @ @ @ @ @ @ @ @ @ @ @ @ @ @ @ @ @ @ @ @ @ @ @ @ @ @ @ @ @ @ @ @ @ @ @ @ @ @ @ @ @ @ @ @ @ @ @ @ @ @ @ @ @ @ @ @ @ @ @ @ @ @ @ @ @ @ @ @ @ @ @ @ @ @ @ @ @ @ @ @ @ @ @ @ @ @ @ @ @ @ @ @ @ @ @ @ @ @ @ @ @ @ @ @ @ @ @ @ @ @ @ @ @ @ @ @ @ 1.",
"+ @ @ @ @ @ @ @ @ @ @ @ @ @ @ @ @ @ @ @ @ @ @ @ @ @ @ @ @ @ @ @ @ @ @ @ @ @ @ @ @ @ @ @ @ @ @ @ @ @ @ @ @ @ @ @ @ @ @ @ @ @ @ @ @ @ @ @ @ @ @ @ @ @ @ @ @ @ @ @ @ @ @ @ @ @ @ @ @ @ @ @ @ @ @ @ @ @ @ @ @ @ @ @ @ @ @ @ @ @ @ @ @ @ @ @ @ @ @ @ @ @ @ @ @ @ @ @ @ @ @ @ @ $ ",
"% @ @ @ @ @ @ @ @ @ @ @ @ @ @ @ @ @ @ @ @ @ @ @ @ @ @ @ @ @ @ @ @ @ @ @ @ @ @ @ @ @ @ @ @ @ @ @ @ @ @ @ @ @ @ @ @ @ @ @ @ @ @ @ @ @ @ @ @ @ @ @ @ @ @ @ @ @ @ @ @ @ @ @ @ @ @ @ @ @ @ @ @ @ @ @ @ @ @ @ @ @ @ @ @ @ @ @ @ @ @ @ @ @ @ @ @ @ @ @ @ @ @ @ @ @ @ @ @ @ @ @ @   ",
"  @ @ @ @ @ @ @ @ @ @ @ @ @ @ @ @ @ @ @ @ @ @ @ @ @ @ @ @ @ @ @ @ @ @ @ @ @ @ @ @ @ @ @ @ @ @ @ @ @ @ @ @ @ @ @ @ @ @ @ @ @ @ @ @ @ @ @ @ @ @ @ @ @ @ @ @ @ @ @ @ @ @ @ @ @ @ @ @ @ @ @ @ @ @ @ @ @ @ @ @ @ @ @ @ @ @ @ @ @ @ @ @ @ @ @ @ @ @ @ @ @ @ @ @ @ @ @ @ @ @ @ @   ",
"  @ @ @ @ @ @ @ @ @ @ @ @ @ @ @ @ @ @ @ @ @ @ @ @ @ @ @ @ @ @ @ @ @ @ @ @ @ @ @ @ @ @ @ @ @ @ @ @ @ @ @ @ @ @ @ @ @ @ @ @ @ @ @ @ @ @ @ @ @ @ @ @ @ @ @ @ @ @ @ @ @ @ @ @ @ @ @ @ @ @ @ @ @ @ @ @ @ @ @ @ @ @ @ @ @ @ @ @ @ @ @ @ @ @ @ @ @ @ @ @ @ @ @ @ @ @ @ @ @ @ @ @   ",
"  @ @ @ @ @ @ @ @ @ @ @ @ @ @ @ @ @ @ @ @ @ @ @ @ @ @ @ @ @ @ @ @ @ @ @ @ @ @ @ @ @ @ @ @ @ @ @ @ @ @ @ @ @ @ @ @ @ @ @ @ @ @ @ @ @ @ @ @ @ @ @ @ @ @ @ @ @ @ @ @ @ @ @ @ @ @ @ @ @ @ @ @ @ @ @ @ @ @ @ @ @ @ @ @ @ @ @ @ @ @ @ @ @ @ @ @ @ @ @ @ @ @ @ @ @ @ @ @ @ @ @ 3   ",
"  &.@ @ @ @ @ @ @ @ @ @ @ @ @ @ @ @ @ @ @ @ @ @ @ @ @ @ @ @ @ @ @ @ @ @ @ @ @ @ @ @ @ @ @ @ @ @ @ @ @ @ @ @ @ @ @ @ @ @ @ @ @ @ @ @ @ @ @ @ @ @ @ @ @ @ @ @ @ @ @ @ @ @ @ @ @ @ @ @ @ @ @ @ @ @ @ @ @ @ @ @ @ @ @ @ @ @ @ @ @ @ @ @ @ @ @ @ @ @ @ @ @ @ @ @ @ @ @ @ @ @     ",
"    @ @ @ @ @ @ @ @ @ @ @ @ @ @ @ @ @ @ @ @ @ @ @ @ @ @ @ @ @ @ @ @ @ @ @ @ @ @ @ @ @ @ @ @ @ @ @ @ @ @ @ @ @ @ @ @ @ @ @ @ @ @ @ @ @ @ @ @ @ @ @ @ @ @ @ @ @ @ @ @ @ @ @ @ @ @ @ @ @ @ @ @ @ @ @ @ @ @ @ @ @ @ @ @ @ @ @ @ @ @ @ @ @ @ @ @ @ @ @ @ @ @ @ @ @ @ @ @ @ @     ",
"    , @ @ @ @ @ @ @ @ @ @ @ @ @ @ @ @ @ @ @ @ @ @ @ @ @ @ @ @ @ @ @ @ @ @ @ @ @ @ @ @ @ @ @ @ @ @ @ @ @ @ @ @ @ @ @ @ @ @ @ @ @ @ @ @ @ @ @ @ @ @ @ @ @ @ @ @ @ @ @ @ @ @ @ @ @ @ @ @ @ @ @ @ @ @ @ @ @ @ @ @ @ @ @ @ @ @ @ @ @ @ @ @ @ @ @ @ @ @ @ @ @ @ @ @ @ @ @ @       ",
"      @ @ @ @ @ @ @ @ @ @ @ @ @ @ @ @ @ @ @ @ @ @ @ @ @ @ @ @ @ @ @ @ @ @ @ @ @ @ @ @ @ @ @ @ @ @ @ @ @ @ @ @ @ @ @ @ @ @ @ @ @ @ @ @ @ @ @ @ @ @ @ @ @ @ @ @ @ @ @ @ @ @ @ @ @ @ @ @ @ @ @ @ @ @ @ @ @ @ @ @ @ @ @ @ @ @ @ @ @ @ @ @ @ @ @ @ @ @ @ @ @ @ @ @ @ @ @ '.      ",
"        @ @ @ @ @ @ @ @ @ @ @ @ @ @ @ @ @ @ @ @ @ @ @ @ @ @ @ @ @ @ @ @ @ @ @ @ @ @ @ @ @ @ @ @ @ @ @ @ @ @ @ @ @ @ @ @ @ @ @ @ @ @ @ @ @ @ @ @ @ @ @ @ @ @ @ @ @ @ @ @ @ @ @ @ @ @ @ @ @ @ @ @ @ @ @ @ @ @ @ @ @ @ @ @ @ @ @ @ @ @ @ @ @ @ @ @ @ @ @ @ @ @ @ @ @ @         ",
"          @ @ @ @ @ @ @ @ @ @ @ @ @ @ @ @ @ @ @ @ @ @ @ @ @ @ @ @ @ @ @ @ @ @ @ @ @ @ @ @ @ @ @ @ @ @ @ @ @ @ @ @ @ @ @ @ @ @ @ @ @ @ @ @ @ @ @ @ @ @ @ @ @ @ @ @ @ @ @ @ @ @ @ @ @ @ @ @ @ @ @ @ @ @ @ @ @ @ @ @ @ @ @ @ @ @ @ @ @ @ @ @ @ @ @ @ @ @ @ @ @ @ @ @           ",
"          > @ @ @ @ @ @ @ @ @ @ @ @ @ @ @ @ @ @ @ @ @ @ @ @ @ @ @ @ @ @ @ @ @ @ @ @ @ @ @ @ @ @ @ @ @ @ @ @ @ @ @ @ @ @ @ @ @ @ @ @ @ @ @ @ @ @ @ @ @ @ @ @ @ @ @ @ @ @ @ @ @ @ @ @ @ @ @ @ @ @ @ @ @ @ @ @ @ @ @ @ @ @ @ @ @ @ @ @ @ @ @ @ @ @ @ @ @ @ @ @ @ @             ",
"              @ @ @ @ @ @ @ @ @ @ @ @ @ @ @ @ @ @ @ @ @ @ @ @ @ @ @ @ @ @ @ @ @ @ @ @ @ @ @ @ @ @ @ @ @ @ @ @ @ @ @ @ @ @ @ @ @ @ @ @ @ @ @ @ @ @ @ @ @ @ @ @ @ @ @ @ @ @ @ @ @ @ @ @ @ @ @ @ @ @ @ @ @ @ @ @ @ @ @ @ @ @ @ @ @ @ @ @ @ @ @ @ @ @ @ @ @ @ @ @               ",
"                @ @ @ @ @ @ @ @ @ @ @ @ @ @ @ @ @ @ @ @ @ @ @ @ @ @ @ @ @ @ @ @ @ @ @ @ @ @ @ @ @ @ @ @ @ @ @ @ @ @ @ @ @ @ @ @ @ @ @ @ @ @ @ @ @ @ @ @ @ @ @ @ @ @ @ @ @ @ @ @ @ @ @ @ @ @ @ @ @ @ @ @ @ @ @ @ @ @ @ @ @ @ @ @ @ @ @ @ @ @ @ @ @ @ @ @ @ m                 ",
"                  &.@ @ @ @ @ @ @ @ @ @ @ @ @ @ @ @ @ @ @ @ @ @ @ @ @ @ @ @ @ @ @ @ @ @ @ @ @ @ @ @ @ @ @ @ @ @ @ @ @ @ @ @ @ @ @ @ @ @ @ @ @ @ @ @ @ @ @ @ @ @ @ @ @ @ @ @ @ @ @ @ @ @ @ @ @ @ @ @ @ @ @ @ @ @ @ @ @ @ @ @ @ @ @ @ @ @ @ @ @ @ @ @ @ @ 2.                  ",
"                        @ @ @ @ @ @ @ @ @ @ @ @ @ @ @ @ @ @ @ @ @ @ @ @ @ @ @ @ @ @ @ @ @ @ @ @ @ @ @ @ @ @ @ @ @ @ @ @ @ @ @ @ @ @ @ @ @ @ @ @ @ @ @ @ @ @ @ @ @ @ @ @ @ @ @ @ @ @ @ @ @ @ @ @ @ @ @ @ @ @ @ @ @ @ @ @ @ @ @ @ @ @ @ @ @ @ @ @ @ 3                         ",
"                                $ >.@ @ @ @ @ @ @ @ @ @ @ @ @ @ @ @ @ @ @ @ @ @ @ @ @ @ @ @ @ @ @ @ @ @ @ @ @ @ @ @ @ @ @ @ @ @ @ @ @ @ @ @ @ @ @ @ @ @ @ @ @ @ @ @ @ @ @ @ @ @ @ @ @ @ @ @ @ @ @ @ @ @ @ @ @ @ @ @ @ @ @ @ @ @ @ @ @ @ >.$                                 "};
