/* XPM */
static char * spot_l_xpm[] = {
"51 70 2 1",
" 	c None",
".	c #1EC81E",
"                                                   ",
"                     .........                     ",
"                   .............                   ",
"                  ...         ...                  ",
"                 ...           ...                 ",
"                 ..             ..                 ",
"                ..               ..                ",
"                ..               ..                ",
"               ..                 ..               ",
"               ..                 ..               ",
"               ..                 ..               ",
"               ..                 ..               ",
"               ..                 ..               ",
"               ..                 ..               ",
"               ..                 ..               ",
"               ..                 ..               ",
"               ..                 ..               ",
"               ..                 ..               ",
"               ..                 ..               ",
"               ..                 ..               ",
"               ..                 ..               ",
"               ..                 ..               ",
"               ..                 ..               ",
"               ..                 ..               ",
"               ..                 ..               ",
"               ..                 ..               ",
"               ..                 ..               ",
"               ..                 ..               ",
"               ..                 ..               ",
"               ..                 ..               ",
"               ..                 ..               ",
"               ..                 ..               ",
"             ....                 ....             ",
"            ....                   ....            ",
"           ...                       ...           ",
"          ...                         ...          ",
"         ..                             ..         ",
"        ..                               ..        ",
"       ...                               ...       ",
"       ..                                 ..       ",
"      ...                                 ...      ",
"      ..                                   ..      ",
"      ..                                   ..      ",
"     ..                                     ..     ",
"     ..                                     ..     ",
"     ..                                     ..     ",
"     .                                       .     ",
"    ..                                       ..    ",
"    ..                                       ..    ",
"    ...........................................    ",
"    ...........................................    ",
"                                                   ",
"                                                   ",
"                                                   ",
"                         .                         ",
"          .            .....            .          ",
"        ....          .......          ....        ",
"       ... ..         ..   ..         ......       ",
"      ..    ..        ..   ..        ...   ..      ",
"     ..     .         ..   ..         ..    ..     ",
"    ..     ..         ..   ..         ..     ..    ",
"   ..     ..          ..   ..          ..     ..   ",
"  ..     ..           ..   ..           ..     ..  ",
" ..     ..            ..   ..            ..     .. ",
" .     ..             ..   ..             ..    .. ",
" .    ..              ..   ..              ..   .. ",
" ..  ..               ..   ..               ...... ",
" .....                ..   ..                ..... ",
"                       .....                       ",
"                        ...                        "};
