/* XPM */
static char * ambient_l_xpm[] = {
"70 70 8 1",
" 	c None",
".	c #1EC81E",
"+	c #16A216",
"@	c #1BB71B",
"#	c #1CC11C",
"$	c #1EC71E",
"%	c #159C15",
"&	c #1CBF1C",
"                                  ..                                  ",
"                                  ..                                  ",
"                                  ..                                  ",
"                                  ..                                  ",
"                                  ..                                  ",
"                                  ..                                  ",
"                                  ..                                  ",
"                                  ..                                  ",
"                        .         ..         .                        ",
"                       ...        ..        ...                       ",
"          ...          ....       ..        ...          ...          ",
"          ....          ...       ..       ...          ....          ",
"           ....         ...       ..       ...         .....          ",
"            ....         ...      ..      ....        .....           ",
"             ....        ...      ..      ...        .....            ",
"              ....       ....     ..     ....       .....             ",
"               ....       ...     ..     ...       .....              ",
"                ....      ...            ...      .....               ",
"                 ....      ..            ..      .....                ",
"                  ....                          .....                 ",
"                   ....        ........        .....                  ",
"                    ...     ..............     ....                   ",
"                     ..   ......      ......   ...                    ",
"         +@.             .....          .....              ..         ",
"        #.....          ....              ....          ......        ",
"         .......       ....                ....       .......         ",
"           ........    ...                  ....    ........          ",
"             ......   ...                    ...   ......             ",
"               $%&.  ...                      ...  ....               ",
"                     ...                      ...                     ",
"                     ..                        ..                     ",
"                    ...                        ...                    ",
"                    ...                         ..                    ",
" ................   ..                          ..   ................ ",
"..................  ..                          ..  ..................",
"..................  ..                          ..  ..................",
" ................   ..                          ..   ................ ",
"                    ...                         ..                    ",
"                    ...                        ...                    ",
"                     ..                        ..                     ",
"                     ...                      ...                     ",
"               ....  ...                      ...  ....               ",
"             ......   ...                    ...   ......             ",
"           ........    ...                  ....    .......           ",
"         .......       ....                ....       .......         ",
"        ......          ....              ....          ......        ",
"         ...             .....          .....             ...         ",
"                     ..    ......    .......   ...                    ",
"                    ...     ..............     ....                   ",
"                   ....        ........        .....                  ",
"                  ....                          .....                 ",
"                 ....      ..            ..      .....                ",
"                ....      ...            ...      .....               ",
"               ....       ...     ..     ...       .....              ",
"              ....       ....     ..     ....       .....             ",
"             ....        ...      ..      ...        .....            ",
"            ....         ...      ..      ....        .....           ",
"           ....         ...       ..       ...         .....          ",
"          ....          ...       ..       ...          ....          ",
"          ...          ....       ..        ...          ...          ",
"                       ...        ..        ...                       ",
"                        .         ..         .                        ",
"                                  ..                                  ",
"                                  ..                                  ",
"                                  ..                                  ",
"                                  ..                                  ",
"                                  ..                                  ",
"                                  ..                                  ",
"                                  ..                                  ",
"                                  ..                                  "};
