/* XPM */
static char * mirror_xpm[] = {
"64 64 289 2",
"  	c #FFFFFF",
". 	c #FEFFFE",
"+ 	c #EFF9EF",
"@ 	c #CDEDCC",
"# 	c #AEE3AE",
"$ 	c #88D888",
"% 	c #63D163",
"& 	c #47CE47",
"* 	c #3DCC3C",
"= 	c #43CD42",
"- 	c #5AD059",
"; 	c #7ED67E",
"> 	c #A4E0A4",
", 	c #C4EAC4",
"' 	c #E5F6E5",
") 	c #FDFEFD",
"! 	c #F3FBF3",
"~ 	c #C1E9C1",
"{ 	c #75D474",
"] 	c #26C925",
"^ 	c #1EC81D",
"/ 	c #21C820",
"( 	c #34CB34",
"_ 	c #58CF58",
": 	c #67D167",
"< 	c #5ED05E",
"[ 	c #3ECC3D",
"} 	c #23C822",
"| 	c #1DC81C",
"1 	c #5DD05C",
"2 	c #E7F7E7",
"3 	c #F1FAF1",
"4 	c #AAE2AA",
"5 	c #3DCB3D",
"6 	c #2AC929",
"7 	c #78D577",
"8 	c #B7E5B7",
"9 	c #D7F1D7",
"0 	c #EEF9EE",
"a 	c #DFF4DF",
"b 	c #C2E9C2",
"c 	c #8EDA8E",
"d 	c #8DDA8D",
"e 	c #E2F5E2",
"f 	c #FCFEFC",
"g 	c #BFE8BF",
"h 	c #45CC44",
"i 	c #4FCE4F",
"j 	c #B6E5B6",
"k 	c #ECF8EC",
"l 	c #F6FCF6",
"m 	c #C8EBC8",
"n 	c #72D471",
"o 	c #1FC81E",
"p 	c #25C924",
"q 	c #A0DF9F",
"r 	c #F4FBF4",
"s 	c #80D780",
"t 	c #41CB40",
"u 	c #BAE7BA",
"v 	c #F8FDF8",
"w 	c #D2EFD2",
"x 	c #58CF57",
"y 	c #D9F2D9",
"z 	c #DFF3DF",
"A 	c #51CE51",
"B 	c #8AD98A",
"C 	c #F9FDF9",
"D 	c #B0E4B0",
"E 	c #29C929",
"F 	c #2BC92A",
"G 	c #BEE8BE",
"H 	c #3ACB39",
"I 	c #28C927",
"J 	c #B8E6B8",
"K 	c #D6F0D6",
"L 	c #B9E6B8",
"M 	c #FAFDFA",
"N 	c #D8F1D8",
"O 	c #4CCD4B",
"P 	c #20C81F",
"Q 	c #AFE4AF",
"R 	c #DBF2DB",
"S 	c #37CA37",
"T 	c #31CA31",
"U 	c #CDEDCD",
"V 	c #A7E2A7",
"W 	c #D9F1D9",
"X 	c #A8E1A8",
"Y 	c #6FD36E",
"Z 	c #DCF2DC",
"` 	c #E8F7E8",
" .	c #5DCF5C",
"..	c #B4E5B4",
"+.	c #EAF7EA",
"@.	c #49CD48",
"#.	c #CFEECF",
"$.	c #E4F5E4",
"%.	c #7BD67B",
"&.	c #9BDE9B",
"*.	c #E1F4E1",
"=.	c #76D576",
"-.	c #A0DFA0",
";.	c #EBF8EB",
">.	c #22C821",
",.	c #CAECCA",
"'.	c #72D472",
").	c #C0E9C0",
"!.	c #60D15F",
"~.	c #C7EBC7",
"{.	c #A8E2A8",
"].	c #E3F5E3",
"^.	c #3CCB3B",
"/.	c #E7F6E6",
"(.	c #AFE3AF",
"_.	c #98DD98",
":.	c #94DC94",
"<.	c #82D781",
"[.	c #E7F6E7",
"}.	c #C9ECC9",
"|.	c #75D475",
"1.	c #2FCA2E",
"2.	c #57CF57",
"3.	c #D4F0D4",
"4.	c #67D266",
"5.	c #B2E4B2",
"6.	c #93DB92",
"7.	c #90DB90",
"8.	c #CCEDCC",
"9.	c #F7FCF7",
"0.	c #ADE3AD",
"a.	c #69D269",
"b.	c #E6F6E6",
"c.	c #3CCB3C",
"d.	c #4DCD4C",
"e.	c #24C923",
"f.	c #71D371",
"g.	c #EDF8ED",
"h.	c #AFE3AE",
"i.	c #BDE8BD",
"j.	c #EFFAEF",
"k.	c #34CA33",
"l.	c #5FD05F",
"m.	c #48CD47",
"n.	c #4DCD4D",
"o.	c #FDFFFD",
"p.	c #C9EBC9",
"q.	c #C6EAC6",
"r.	c #95DC95",
"s.	c #D4EFD4",
"t.	c #E2F4E1",
"u.	c #74D473",
"v.	c #63D162",
"w.	c #EDF9ED",
"x.	c #BCE7BC",
"y.	c #BBE7BB",
"z.	c #E9F7E9",
"A.	c #23C922",
"B.	c #9ADD99",
"C.	c #FBFEFB",
"D.	c #F5FCF5",
"E.	c #30CA2F",
"F.	c #6AD269",
"G.	c #8BD98B",
"H.	c #29C928",
"I.	c #DDF3DD",
"J.	c #A1DFA0",
"K.	c #7BD57B",
"L.	c #F2FBF2",
"M.	c #33CA32",
"N.	c #27C926",
"O.	c #B5E5B4",
"P.	c #A2E0A2",
"Q.	c #B5E5B5",
"R.	c #A2DFA2",
"S.	c #83D883",
"T.	c #CFEDCF",
"U.	c #38CB37",
"V.	c #28C928",
"W.	c #DEF3DE",
"X.	c #52CE51",
"Y.	c #2DC92D",
"Z.	c #81D781",
"`.	c #F1FBF1",
" +	c #22C921",
".+	c #E0F4E0",
"++	c #D4EED4",
"@+	c #BCE6BC",
"#+	c #37CB36",
"$+	c #EEFAEE",
"%+	c #D3EED2",
"&+	c #2ECA2D",
"*+	c #C2E9C1",
"=+	c #CBECCB",
"-+	c #5ACF59",
";+	c #B7E6B7",
">+	c #D3EED3",
",+	c #CCECCC",
"'+	c #9DDE9D",
")+	c #E5F5E5",
"!+	c #CEEDCE",
"~+	c #7AD57A",
"{+	c #6ED36E",
"]+	c #32CA32",
"^+	c #42CC41",
"/+	c #F0FAF0",
"(+	c #49CC49",
"_+	c #79D579",
":+	c #91DB91",
"<+	c #88D988",
"[+	c #4ACD4A",
"}+	c #36CA36",
"|+	c #DAF2DA",
"1+	c #6AD36A",
"2+	c #66D266",
"3+	c #84D883",
"4+	c #4CCD4C",
"5+	c #A1DFA1",
"6+	c #7FD67F",
"7+	c #75D375",
"8+	c #75D374",
"9+	c #9CDE9C",
"0+	c #C9EBC8",
"a+	c #9BDD9B",
"b+	c #A9E2A9",
"c+	c #9FDF9F",
"d+	c #CBECCA",
"e+	c #56CF56",
"f+	c #46CC46",
"g+	c #65D165",
"h+	c #E1F5E1",
"i+	c #D1EED1",
"j+	c #77D577",
"k+	c #D3EFD2",
"l+	c #DCF3DC",
"m+	c #FAFEFA",
"n+	c #50CE50",
"o+	c #8FDA8F",
"p+	c #B1E4B1",
"q+	c #43CC43",
"r+	c #99DD99",
"s+	c #C3EAC3",
"t+	c #D0EED0",
"u+	c #F2FAF2",
"v+	c #30CA30",
"w+	c #A7E1A7",
"x+	c #53CE53",
"y+	c #39CA39",
"z+	c #35CA35",
"A+	c #89D989",
"B+	c #34CA34",
"C+	c #D5F0D5",
"D+	c #3BCB3B",
"E+	c #2BC92B",
"F+	c #31CA30",
"G+	c #EAF8EA",
"H+	c #32CA31",
"I+	c #4BCD4B",
"J+	c #A9E1A9",
"K+	c #35CB34",
"L+	c #6CD36C",
"M+	c #E9F8E9",
"N+	c #B3E4B2",
"O+	c #3DCB3C",
"P+	c #55CF54",
"Q+	c #36CB35",
"R+	c #D1EFD1",
"S+	c #4ACE49",
"T+	c #36CA35",
"U+	c #30C92F",
"V+	c #97DC97",
"W+	c #E4F6E4",
"X+	c #A5E0A5",
"Y+	c #41CC41",
"Z+	c #1FC81F",
"`+	c #E0F4DF",
" @	c #EAF9EA",
".@	c #E9F9E9",
"+@	c #9EDE9E",
"@@	c #F5FBF5",
"#@	c #1CC81B",
"$@	c #21C921",
"%@	c #93DB93",
"&@	c #8CDA8C",
"*@	c #96DD96",
"=@	c #C5EAC5",
"-@	c #76D476",
";@	c #65D265",
">@	c #46CD46",
"                                                                                                                                ",
"                                                                                                                                ",
"                                                                                                                                ",
"                                                                                                                                ",
"                                                                                                                                ",
"                                                                                                                                ",
"                                                                                                                                ",
"                                                                                                                                ",
"                                                              . + @ # $ % & * = - ; > , ' )                                     ",
"                                                          ! ~ { ] ^ ^ / ( _ : < [ } ^ ^ | 1 # 2                                 ",
"                                                      3 4 5 ^ 6 7 8 9 0 ) . . . ) ! a b c 5 ^ ] d e                             ",
"                                                  f g h ^ i j k                           l m n o p q r                         ",
"                                                0 s ^ t u v                                   ) w : ^ x y                       ",
"                                              z A ^ B 0                                           C D E F G .                   ",
"                                            9 H I J )                                   K L M         N O P Q .                 ",
"                                          R S T U                                 V W   l X Y Z         `  .o ..                ",
"                                        +.@.F #.                                  $.%.&.3   *.=.-.!       ;.x >.,.              ",
"                                      C '.o ).                                      f b !.~.) f G {.        ].^.^./.            ",
"                                      (.^ _..                                           + :.<.[.              }.P |.f           ",
"                                    [.1.2.r                                               . 3.4.5.C           . 6.^ ~           ",
"                                    7.o 8.                                                    9.0.a.b.          0 c.d.l         ",
"                                  ' e.f.)                                                         ' g.            h.^ i.        ",
"                                  > ^ U                                                                           j.k.l.f       ",
"                                C m.n.M                               o.` p.i.q.].f                                 r.^ Z       ",
"                                r s.t.                              K u.o ^ ^ ^ ^ v.,..                             s.^ 4       ",
"                              w.8.x.y.}.z..                     . # A.^ ^ ^ ^ ^ ^ ^ o B.C.                          D.E.F..     ",
"                          ' G.H.^ ^ ^ ^ / ; I.                  J ^ ^ ^ ^ ^ ^ ^ ^ ^ ^ ^ J..                           K.F L.    ",
"                        , M.^ ^ ^ ^ ^ ^ ^ ^ N.O..             ` 1.^ ^ ^ ^ ^ ^ ^ ^ ^ ^ ^ P N                           P.^ *.    ",
"                      ~.>.^ ^ ^ ^ ^ ^ ^ ^ ^ ^ ^ Q.            R.^ ^ ^ ^ ^ ^ ^ ^ ^ ^ ^ ^ ^ S.                          y.^ T.    ",
"                    +.U.^ ^ ^ ^ ^ ^ ^ ^ ^ ^ ^ ^ V.W.        ) X.^ ^ ^ ^ ^ ^ ^ ^ ^ ^ ^ ^ ^ Y.r                         ,.^ g     ",
"                    &.^ ^ ^ ^ ^ ^ ^ ^ ^ ^ ^ ^ ^ ^ Z..       `. +^ ^ ^ ^ ^ ^ ^ ^ ^ ^ ^ ^ ^ ^ .+                        ++^ @+    ",
"                  l #+^ ^ ^ ^ ^ ^ ^ ^ ^ ^ ^ ^ ^ ^ A.k       $+P ^ ^ ^ ^ ^ ^ ^ ^ ^ ^ ^ ^ ^ ^ I.                        %+^ x.    ",
"                  Z ^ ^ ^ ^ ^ ^ ^ ^ ^ ^ ^ ^ ^ ^ ^ ^ ,.      v &+^ ^ ^ ^ ^ ^ ^ ^ ^ ^ ^ ^ ^ P z.                        ~.^ *+    ",
"                  =+^ ^ ^ ^ ^ ^ ^ ^ ^ ^ ^ ^ ^ ^ ^ ^ J         <.^ ^ ^ ^ ^ ^ ^ ^ ^ ^ ^ ^ ^ -+)                         ;+^ >+    ",
"                  ,+^ ^ ^ ^ ^ ^ ^ ^ ^ ^ ^ ^ ^ ^ ^ ^ u         ,.^ ^ ^ ^ ^ ^ ^ ^ ^ ^ ^ ^ ^ ..                          '+^ )+    ",
"                  .+^ ^ ^ ^ ^ ^ ^ ^ ^ ^ ^ ^ ^ ^ ^ ^ !+        C.~+^ ^ ^ ^ ^ ^ ^ ^ ^ ^ ^ < l                         . {+]+l     ",
"                  C ^+^ ^ ^ ^ ^ ^ ^ ^ ^ ^ ^ ^ ^ ^ H./+          0 l.^ ^ ^ ^ ^ ^ ^ ^ ^ (+].                          /+e._+      ",
"                    X ^ ^ ^ ^ ^ ^ ^ ^ ^ ^ ^ ^ ^ ^ :+              /+<+P ^ ^ ^ ^ ^ ^ |.`                             ,.^ ..      ",
"                    3 [+^ ^ ^ ^ ^ ^ ^ ^ ^ ^ ^ ^ }+[.                . |+-.1+x 2+_.w f                               3+P '       ",
"                      9 E.^ ^ ^ ^ ^ ^ ^ ^ ^ ^ e.~.                          o..                                   b.N.|..       ",
"                        9 4+^ ^ ^ ^ ^ ^ ^ ^ c.=+            C #.5+6+7+8+8+8+8+8+8+8+7+; 9+0+l                     a+^ =+        ",
"                          3 b+h o ^ ^ ^ H c+k           . d+e+^ ^ ^ ^ ^ ^ ^ ^ ^ ^ ^ ^ ^ ^ ^ f+G f               e V.g+C.        ",
"                              C h+i+i+a 9.            f 5+P ^ ^ ^ ^ ^ ^ ^ ^ ^ ^ ^ ^ ^ ^ ^ ^ ^ ^ d v           C.j+o k+          ",
"                    f z.I.l+l+l+l+l+l+l+l+l+l+I.[.m+  a n+^ ^ ^ ^ ^ ^ ^ ^ ^ ^ ^ ^ ^ ^ ^ ^ ^ ^ ^ ^ o+f         p+^ :+.           ",
"                z.R.n.P ^ ^ ^ ^ ^ ^ ^ ^ ^ ^ ^ ^ o q+r+e r _.o ^ ^ ^ ^ ^ ^ ^ ^ ^ ^ ^ ^ ^ ^ ^ ^ ^ ^ ^ s+      t+] 2.u+            ",
"            f j v+^ ^ ^ ^ ^ ^ ^ ^ ^ ^ ^ ^ ^ ^ ^ ^ ^ ^ p w+C (.o ^ ^ ^ ^ ^ ^ ^ ^ ^ ^ ^ ^ ^ ^ ^ ^ ^ ^ x+v   |+y+z+W.              ",
"          ) 9+^ ^ ^ ^ ^ ^ ^ ^ ^ ^ ^ ^ ^ ^ ^ ^ ^ ^ ^ ^ ^ ^ A+v &.^ ^ ^ ^ ^ ^ ^ ^ ^ ^ ^ ^ ^ ^ ^ ^ ^ ^ B+b.C+D+E+#.                ",
"          ;+^ ^ ^ ^ ^ ^ ^ ^ ^ ^ ^ ^ ^ ^ ^ ^ ^ ^ ^ ^ ^ ^ ^ ^ P.D.2.^ ^ ^ ^ ^ ^ ^ ^ ^ ^ ^ ^ ^ ^ ^ ^ {+.+x.F F+U                   ",
"        G+H+^ ^ ^ ^ ^ ^ ^ ^ ^ ^ ^ ^ ^ ^ ^ ^ ^ ^ ^ ^ ^ ^ ^ ^ p W.~ ^ ^ ^ ^ ^ ^ ^ ^ ^ ^ ^ ^ ^ ^ I+i.2 B ^ 4+W                     ",
"        J+^ ^ ^ ^ ^ ^ ^ ^ ^ ^ ^ ^ ^ ^ ^ ^ ^ ^ ^ ^ ^ ^ ^ ^ ^ ^ :+D.K+^ ^ ^ ^ ^ ^ ^ ^ ^ ^ ^ L+).M+N+O+^ s w.                      ",
"      f P+^ ^ ^ ^ ^ ^ ^ ^ ^ ^ ^ ^ ^ ^ ^ ^ ^ ^ ^ ^ ^ ^ ^ ^ ^ ^ Q+l R+> u.S+T+U+k.^+2+V+~ W+a X+Y+^ [+s+f                         ",
"      w.Z+^ ^ ^ ^ ^ ^ ^ ^ ^ ^ ^ ^ ^ ^ ^ ^ ^ ^ ^ ^ ^ ^ ^ ^ ^ ^ | `+R+J K b. @.@ @` Z *++@-+o ^ d.Q.@@                            ",
"      s.^ ^ ^ ^ ^ ^ ^ ^ ^ ^ ^ ^ ^ ^ ^ ^ ^ ^ ^ ^ ^ ^ ^ ^ ^ ^ ^ ^ ~ 8.^ ^ #@$@] A.#@^ ^ o c.%@!+v                                 ",
"      Q.^ ^ ^ ^ ^ ^ ^ ^ ^ ^ ^ ^ ^ ^ ^ ^ ^ ^ ^ ^ ^ ^ ^ ^ ^ ^ ^ ^ P.9.U p+&.c A+&@*@4 =@*.v                                       ",
"      %@^ ^ ^ ^ ^ ^ ^ ^ ^ ^ ^ ^ ^ ^ ^ ^ ^ ^ ^ ^ ^ ^ ^ ^ ^ ^ ^ ^ -@                                                              ",
"      ;@H H H H H H H H H H H H H H H H H H H H H H H H H H H H >@C                                                             ",
"      C C C C C C C C C C C C C C C C C C C C C C C C C C C C C C .                                                             ",
"                                                                                                                                ",
"                                                                                                                                ",
"                                                                                                                                ",
"                                                                                                                                ",
"                                                                                                                                ",
"                                                                                                                                ",
"                                                                                                                                "};
